@startuml
'https://plantuml.com/class-diagram

package ui {
class DefineHubsUi{
-DefineHubsController controller
-Scanner sc
+void run()
}
class IrrigationUi{
-Scanner sc
+void run()
}
class IrrigationCheckerUi{
-IrrigationCheckerController irrigationCheckerController;
-Scanner sc
+void run()
}
class IrrigationCalendarUi{
+void run()
}
class ImportIrrigationDataUi{
-ImportIrrigationDataController controller
-Scanner sc
+void run()
}
class ImportEntitiesUi{
-ImportEntitiesController controller
-Scanner sc
+void run()
}
class FindNearestHubUi{
-FindNearestHubController controller
-Scanner sc
+void run()
}
class VerifyConnectivityUi{
-VerifyConnectivityController verifyConnectivityController
-Scanner sc
+void run()
}
class MainMenuUi{
-Scanner sc
+void main(String[] args)
}
class MinimumNetworkUi{
-MinimumNetworkController minimumNetworkController
-Scanner sc
+void run()
}
}
package Controller {
class DefineHubsController{
-EntityStore entityStore
+int getAverageProximityDistanceOfCompany(Company company)
+List<Pair<Company, Integer>> getCompanyAverageDistanceList()
+void defineHubs(int numberOfHubs)
}
class IrrigationCheckerController{
-IrrigationControllerStore irrigationControllerStore
-private IrrigationCalendar irrigationCalendar;
+Pair<Boolean, Integer> isPlotGettingIrrigated(Plot plot)
+int getIrrigationTimeLeft(Plot plot)
+List<Pair<Plot, Integer>> irrigatedPlots()
+Pair<Boolean, Pair<Plot, Integer>> isAnyPlotGettingIrrigated
}
class ImportIrrigationDataController{
-IrrigationControllerStore irrigationControllerStore
+void importIrrigationController(String file)
+void fillIrrigationCalendar()
+void importEntityConnections(String file)
+void addToDay(Date date, String dayType)
+void addThirtyDays()
}
class ImportEntitiesController{
-EntityStore entityStore
+void importEntityInfo(String file)
+Entity findEntityByLocationId(List<Entity> entityList, String locationId)
+void importEntityConnections(String file)
}
class FindNearestHubController{
-EntityStore entityStore
+List<Pair<Company, Integer>> getEntityReachableDistributionHubs(Entity entity)
+Pair<Company, Integer> getNearestDistributionHub(Entity entity)
+List<Pair<Entity, Pair<Company, Integer>>> getNearestDistributionHubForEachClient()
}
class VerifyConnectivityController{
-EntityStore entityStore
-MapGraph <Entity,Integer> mapGraph
+boolean isConnected()
+MapGraph<Entity, Integer> IgnoreWeights()
+int minimumNumberOfConnections()
}
class MinimumNetworkController{
-EntityStore entityStore
-MapGraph <Entity,Integer> mapGraph
+MapGraph<Entity, Integer> getMinimumDistGraph()
+int getMinimumNetworkDistance(MapGraph<Entity,Integer> mapGraph)
}
}
package Domain {

package Store {
class EntityStore {
-MapGraph<Entity, Integer> entitiesGraph
+MapGraph<Entity, Integer> getEntitiesGraph()
+void setEntitiesGraph(MapGraph<Entity, Integer> entitiesGraph)
}
class IrrigationControllerStore {
-IrrigationController irrigationController
-IrrigationCalendar irrigationCalendar
+IrrigationController getIrrigationController()
+void setIrrigationController(IrrigationController irrigationController)
+void setIrrigationCalendar(IrrigationCalendar irrigationCalendar)
}

}
package Model {
class IrrigationCalendar {
+TreeMap<Date, LinkedList<Pair<Plot, Hour>>> daysIrrigationMap
+TreeMap<java.util.Date, LinkedList<Pair<Plot, Hour>>> getDaysIrrigationMap()
}

class IrrigationController {
-ArrayList<Hour> irrigationHours
-HashMap<Plot, Pair<Integer, String>> irrigationValuesMap
+ArrayList<Hour> getIrrigationHours()
+HashMap<Plot, Pair<Integer, String>> getIrrigationValuesMap()
+void setIrrigationHours(ArrayList<Hour> irrigationHours)
+void setIrrigationValuesMap(HashMap<Plot, Pair<Integer, String>> irrigationValuesMap)
}
class Plot {
+String designation
+int area
+String culture
}
abstract class Entity {
+Location location
+String name
+Location getLocation()
+String getName()
+String toString()

}

class Client extends Entity {
}

class Company extends Entity {
}

class Productor extends Entity {
}

class Location {
+String locationId
+double latitude;
+double longitude;
+String getLocationId()
+double getLatitude()
+double getLongitude()
}

class Organization {
-EntityStore entityStore
-IrrigationControllerStore irrigationControllerStore
+EntityStore getEntityStore()
+IrrigationControllerStore getIrrigationControllerStore()
}

}

}
package Utils {
class Hour {
-int hours
-int minutes
-int seconds
}

class Date {
-int day
-int month
-int year
-HashMap<Integer,Integer> months
}
class Pair {
-F first
-S second
+F getFirst()
+S getSecond()

}

package Graph {

package map {

class MapGraph {
-Map<V, MapVertex<V, E>> mapVertices
+boolean validVertex(V vert)
+Collection<V> adjVertices(V vert)
+Collection<Edge<V, E>> edges()
+Edge<V, E> edge(V vOrig, V vDest)
+int outDegree(V vert)
+int inDegree(V vert)
+ Collection<Edge<V, E>> outgoingEdges(V vert)
+Collection<Edge<V, E>> incomingEdges(V vert)
+boolean addVertex(V vert)
+boolean addEdge(V vOrig, V vDest, E weight)
+boolean removeVertex(V vert)
+boolean removeEdge(V vOrig, V vDest)
+MapGraph<V, E> clone()
+String toString()
}

class MapVertex {
-V element
-Map<V, Edge<V, E>> outVerts
+V getElement()
+void addAdjVert(V vAdj, Edge<V, E> edge)
+void remAdjVert(V vAdj)
+Edge<V, E> getEdge(V vAdj)
+int numAdjVerts()
+Collection<V> getAllAdjVerts()
+Collection<Edge<V, E>> getAllOutEdges()
+String toString()
}

}

class Edge {
-V vOrig
-V vDest
-E weight
+V getVOrig()
+V getVDest()
+E getWeight()
+String toString()
+boolean equals(Object o)
+int compareTo(Object o)
}

interface Graph {
+boolean isDirected()
+int numVertices()
+ArrayList<V> vertices()
+boolean validVertex(V vert)
+int key(V vert)
+V vertex(int key)
+Collection<V> adjVertices(V vert)
+int numEdges()
+Collection<Edge<V, E>> edges()
+Edge<V, E> edge(V vOrig, V vDest)
+int outDegree(V vert)
+int inDegree(V vert)
+Collection<Edge<V, E>> outgoingEdges(V vert)
+Collection<Edge<V, E>> incomingEdges(V vert)
+boolean addVertex(V vert)
+boolean addEdge(V vOrig, V vDest, E weight)
+boolean removeVertex(V vert)
+boolean removeEdge(V vOrig, V vDest)
+Graph<V, E> clone()
}

class Algorithms {
+LinkedList<V> BreadthFirstSearch(Graph<V, E> g, V vert)
+void DepthFirstSearch(Graph<V, E> g, V vOrig, boolean[] visited, LinkedList<V> qdfs)
+LinkedList<V> DepthFirstSearch(Graph<V, E> g, V vert)
+void allPaths(Graph<V, E> g, V vOrig, V vDest, boolean[] visited, LinkedList<V> path, ArrayList<LinkedList<V>> paths)
+void shortestPathDijkstra(Graph<V, E> g, V vOrig, Comparator<E> ce, BinaryOperator<E> sum, E zero, boolean[] visited, V [] pathKeys, E [] dist)
+boolean shortestPaths(Graph<V, E> g, V vOrig, Comparator<E> ce, BinaryOperator<E> sum, E zero, ArrayList<LinkedList<V>> paths, ArrayList<E> dists)
+void getPath(Graph<V, E> g, V vOrig, V vDest, V [] pathKeys, LinkedList<V> path)
+MatrixGraph<V,E> minDistGraph(Graph <V,E> g, Comparator<E> ce, BinaryOperator<E> sum)
+MapGraph<V,E> kruskallAlgorithm(Graph<V,E> g)
}


MainMenuUi .->MinimumNetworkUi
MainMenuUi .->DefineHubsUi
MainMenuUi .->FindNearestHubUi
MainMenuUi .->VerifyConnectivityUi
MainMenuUi .->ImportEntitiesUi
MainMenuUi .->IrrigationUi
IrrigationUi .-> IrrigationCheckerUi
IrrigationUi .-> IrrigationCalendarUi
IrrigationUi .-> ImportIrrigationDataUi
IrrigationCheckerUi .-> IrrigationCheckerController
IrrigationCalendarUi .-> IrrigationCalendar
ImportIrrigationDataUi .-> ImportIrrigationDataController
ImportIrrigationDataController .-> IrrigationControllerStore
ImportIrrigationDataController .-> IrrigationCalendar
IrrigationCalendar --> Date
IrrigationCalendar --> Hour
IrrigationCalendar --> Plot
IrrigationControllerStore -> IrrigationController : contains >
Organization --> IrrigationControllerStore : contains >
MapGraph .-> Graph
MapGraph -> Edge : contains >
MinimumNetworkUi .-> MinimumNetworkController
MinimumNetworkController .-> MapGraph
MinimumNetworkController .-> Algorithms
MinimumNetworkController .-> Pair
MinimumNetworkController .-> EntityStore
MinimumNetworkController .-> Organization
VerifyConnectivityUi .-> VerifyConnectivityController
VerifyConnectivityController .-> MapGraph
VerifyConnectivityController .-> Algorithms
VerifyConnectivityController .-> Pair
VerifyConnectivityController .-> EntityStore
VerifyConnectivityController .-> Organization
DefineHubsUi .-> DefineHubsController
DefineHubsController .-> MapGraph
DefineHubsController .-> Algorithms
DefineHubsController .-> Pair
DefineHubsController .-> EntityStore
DefineHubsController .-> Organization
FindNearestHubUi .-> FindNearestHubController
FindNearestHubController .-> MapGraph
FindNearestHubController .-> Algorithms
FindNearestHubController .-> Pair
FindNearestHubController .-> EntityStore
FindNearestHubController .-> Organization
ImportEntitiesUi .-> ImportEntitiesController
ImportEntitiesController .-> MapGraph
ImportEntitiesController .-> Algorithms
ImportEntitiesController .-> Pair
ImportEntitiesController .-> EntityStore
ImportEntitiesController .-> Organization
EntityStore -> Entity : contains >
Organization --> EntityStore : contains >
EntityStore .-> MapGraph
Entity -> Location : contains >

@enduml